<svg width="19px" height="19px" viewBox="0 0 19 19" version="1.1" xmlns="http://www.w3.org/2000/svg" xmlns:xlink="http://www.w3.org/1999/xlink">
    <!-- Generator: Sketch 51.3 (57544) - http://www.bohemiancoding.com/sketch -->
    <desc>Created with Sketch.</desc>
    <defs>
        <path d="M8.75,3.7205306 L8.75,3.5 C8.75,2.53350169 9.53350169,1.75 10.5,1.75 C11.4664983,1.75 12.25,2.53350169 12.25,3.5 L12.25,3.7205306 C12.8922867,3.88584378 13.4988973,4.14002434 14.0559429,4.46918341 L14.2123106,4.31281566 C14.8957281,3.62939815 16.0037668,3.62939815 16.6871843,4.31281566 C17.3706018,4.99623318 17.3706018,6.10427189 16.6871843,6.7876894 L16.5308166,6.94405714 C16.8599757,7.50110269 17.1141562,8.10771326 17.2794694,8.75 L17.5,8.75 C18.4664983,8.75 19.25,9.53350169 19.25,10.5 C19.25,11.4664983 18.4664983,12.25 17.5,12.25 L17.2794694,12.25 C17.1141562,12.8922867 16.8599757,13.4988973 16.5308166,14.0559429 L16.6871843,14.2123106 C17.3706018,14.8957281 17.3706018,16.0037668 16.6871843,16.6871843 C16.0037668,17.3706018 14.8957281,17.3706018 14.2123106,16.6871843 L14.0559429,16.5308166 C13.4988973,16.8599757 12.8922867,17.1141562 12.25,17.2794694 L12.25,17.5 C12.25,18.4664983 11.4664983,19.25 10.5,19.25 C9.53350169,19.25 8.75,18.4664983 8.75,17.5 L8.75,17.2794694 C8.10771326,17.1141562 7.50110269,16.8599757 6.94405714,16.5308166 L6.7876894,16.6871843 C6.10427189,17.3706018 4.99623318,17.3706018 4.31281566,16.6871843 C3.62939815,16.0037668 3.62939815,14.8957281 4.31281566,14.2123106 L4.46918341,14.0559429 C4.14002434,13.4988973 3.88584378,12.8922867 3.7205306,12.25 L3.5,12.25 C2.53350169,12.25 1.75,11.4664983 1.75,10.5 C1.75,9.53350169 2.53350169,8.75 3.5,8.75 L3.7205306,8.75 C3.88584378,8.10771326 4.14002434,7.50110269 4.46918341,6.94405714 L4.31281566,6.7876894 C3.62939815,6.10427189 3.62939815,4.99623318 4.31281566,4.31281566 C4.99623318,3.62939815 6.10427189,3.62939815 6.7876894,4.31281566 L6.94405714,4.46918341 C7.50110269,4.14002434 8.10771326,3.88584378 8.75,3.7205306 Z M10.5,13.125 C11.9497475,13.125 13.125,11.9497475 13.125,10.5 C13.125,9.05025253 11.9497475,7.875 10.5,7.875 C9.05025253,7.875 7.875,9.05025253 7.875,10.5 C7.875,11.9497475 9.05025253,13.125 10.5,13.125 Z" id="path-1"></path>
    </defs>
    <g id="Page-1" stroke="none" stroke-width="1" fill="none" fill-rule="evenodd">
        <g id="Artboard-Copy-11" transform="translate(-353.000000, -102.000000)">
            <g id="dashboard-copy" transform="translate(79.000000, 72.000000)">
                <g id="settings-bar" transform="translate(0.000000, 22.000000)">
                    <g id="Icons-/-Settings" transform="translate(273.000000, 7.000000)">
                        <mask id="mask-2" fill="white">
                            <use xlink:href="#path-1"></use>
                        </mask>
                        <use id="Glyph" fill="#000000" fill-rule="evenodd" xlink:href="#path-1"></use>
                        <g id="Colors-/-Background" mask="url(#mask-2)" fill="#F3F3F3" fill-rule="evenodd">
                            <rect id="Color" x="0" y="0" width="20.75" height="20.75"></rect>
                        </g>
                    </g>
                </g>
            </g>
        </g>
    </g>
</svg>
